<?xml version="1.0"?>
<svg xmlns="http://www.w3.org/2000/svg" xmlns:xlink="http://www.w3.org/1999/xlink" xmlns:svgjs="http://svgjs.com/svgjs" version="1.1" width="512" height="512" x="0" y="0" viewBox="0 0 511.768 511.768" style="enable-background:new 0 0 512 512" xml:space="preserve"><g><g xmlns="http://www.w3.org/2000/svg"><path d="m459.286 203.287c0-13.799-7.199-24.771-13.551-34.451-8.486-11.488-9.529-18.828-8.329-31.515 2.105-23.636-1.844-44.68-33.988-58.545-13.126-5.801-17.864-11.396-23.139-23.14-10.598-22.87-24.591-37.693-58.546-33.988-14.224 1.434-21.095-.733-31.514-8.328-20.172-14.212-40.533-20.987-68.904 0-11.488 8.487-18.827 9.527-31.513 8.328-23.637-2.104-44.682 1.844-58.547 33.987-5.8 13.126-11.396 17.864-23.139 23.14-22.87 10.597-37.693 24.592-33.988 58.546 1.432 14.223-.732 21.095-8.328 31.514-14.211 20.173-20.986 40.532 0 68.904 8.486 11.488 9.529 18.827 8.328 31.514-2.105 23.638 1.846 44.68 33.987 58.546 13.126 5.8 17.864 11.396 23.14 23.14 7.608 16.418 16.966 28.685 34.2 32.932v127.898l90.154-36.144 90.471 36.107v-127.94c13.534-3.288 25.335-12.304 34.199-32.853 5.8-13.126 11.397-17.865 23.141-23.141 22.87-10.599 37.692-24.592 33.987-58.546-1.432-14.223.732-21.096 8.328-31.514 6.352-9.68 13.551-20.653 13.551-34.451zm-203.702 240.027-60.129 24.106v-82.874c10.588-.317 16.927 2.196 25.861 8.708 9.68 6.352 20.652 13.551 34.451 13.551s24.771-7.199 34.451-13.551c9.668-7.141 16.41-9.003 25.862-8.7v82.904zm165.069-222.033c-10.927 13.427-15.481 34.033-13.202 49.593 2.12 17.743-1.766 23.383-17.543 30.14-16.083 6.196-30.593 21.503-36.414 36.414-7.098 16.258-12.723 19.636-30.139 17.543-17.024-2.591-37.207 3.242-49.594 13.202-14.435 10.799-21.86 10.702-35.987-.001-10.624-8.038-26.753-14.502-39.078-13.574-3.622 0-7.16.191-10.515.373-17.745 2.117-23.383-1.766-30.141-17.544-6.195-16.084-21.502-30.592-36.413-36.413-16.257-7.098-19.638-12.723-17.543-30.14 2.591-17.024-3.242-37.207-13.202-49.593-10.8-14.435-10.703-21.861 0-35.988 10.927-13.428 15.481-34.033 13.202-49.593-2.121-17.743 1.767-23.383 17.543-30.14 16.083-6.195 30.593-21.501 36.413-36.413 7.099-16.257 12.725-19.64 30.141-17.543 17.023 2.591 37.206-3.242 49.592-13.202 14.435-10.801 21.86-10.702 35.988 0 13.428 10.927 34.032 15.481 49.593 13.202 17.744-2.119 23.383 1.766 30.14 17.544 6.195 16.082 21.502 30.593 36.413 36.412 16.257 7.1 19.639 12.722 17.544 30.14-2.591 17.024 3.242 37.207 13.202 49.594 10.91 14.426 10.541 22.11 0 35.987z" fill="#ffffff" data-original="#000000" style=""/><path d="m255.768 67.787c-74.715 0-135.5 60.785-135.5 135.5s60.785 135.5 135.5 135.5 135.5-60.785 135.5-135.5-60.785-135.5-135.5-135.5zm0 241c-58.173 0-105.5-47.327-105.5-105.5s47.327-105.5 105.5-105.5 105.5 47.327 105.5 105.5c0 58.172-47.327 105.5-105.5 105.5z" fill="#ffffff" data-original="#000000" style=""/><path d="m287.135 160.875-17.54-35.54h-27.653l-17.54 35.54-39.22 5.699-8.546 26.299 28.38 27.664-6.7 39.062 22.372 16.255 35.08-18.443 35.08 18.443 22.372-16.254-6.7-39.062 28.38-27.664-8.546-26.299zm-12.849 49.19 4.371 25.487-22.89-12.033-22.89 12.033 4.372-25.487-18.518-18.051 25.591-3.719 11.445-23.189 11.445 23.189 25.591 3.719z" fill="#ffffff" data-original="#000000" style=""/></g></g></svg>
