<?xml version="1.0"?>
<svg xmlns="http://www.w3.org/2000/svg" xmlns:xlink="http://www.w3.org/1999/xlink" xmlns:svgjs="http://svgjs.com/svgjs" version="1.1" width="512" height="512" x="0" y="0" viewBox="0 0 512 512" style="enable-background:new 0 0 512 512" xml:space="preserve" class=""><g>
<g xmlns="http://www.w3.org/2000/svg">
	<g transform="translate(1 1)">
		<path style="" d="M67.238,229.4h375.467c9.426,0,17.067,7.641,17.067,17.067V485.4    c0,9.426-7.641,17.067-17.067,17.067H67.238c-9.426,0-17.067-7.641-17.067-17.067V246.467    C50.172,237.041,57.813,229.4,67.238,229.4z" fill="#ffffff" data-original="#7fabfa"/>
		<path style="" d="M67.238,229.4h349.867c9.426,0,17.067,7.641,17.067,17.067V485.4    c0,9.426-7.641,17.067-17.067,17.067H67.238c-9.426,0-17.067-7.641-17.067-17.067V246.467    C50.172,237.041,57.813,229.4,67.238,229.4z" fill="#e3e7f2" data-original="#e3e7f2" class=""/>
		<path style="" d="M348.838,291.949v18.517c0.166,4.128-1.378,8.141-4.267,11.093l-31.573,26.965l0.171,0.171    l12.8,97.178c-0.341,5.973-8.311,8.619-11.093,3.669l-44.151-65.015l-28.373,26.197l0.683,38.221    c0.384,4.54-2.352,8.765-6.652,10.272c-4.3,1.507-9.075-0.086-11.609-3.872l-10.633-16.64l-19.029,10.325    c-3.524,1.902-7.787,1.814-11.23-0.232c-3.442-2.045-5.558-5.748-5.573-9.752c-0.015-1.908,0.458-3.788,1.374-5.461l10.889-19.447    l-16.29-10.581c-3.922-2.401-5.658-7.199-4.18-11.554c1.478-4.355,5.776-7.105,10.349-6.622l37.726,1.195l26.231-28.245    l-65.323-43.938c-4.966-2.731-2.227-10.667,3.686-10.923l97.647,12.715l0.179,0.085l27.17-31.403    c2.976-2.885,7.003-4.426,11.145-4.267l18.517,0.085C343.661,280.717,348.727,285.719,348.838,291.949z" fill="#f4f4f4" data-original="#f4f4f4" class=""/>
		<g>
			<path style="" d="M109.905,502.467H67.238c-9.414-0.028-17.039-7.653-17.067-17.067v-42.667     C83.162,442.733,109.905,469.477,109.905,502.467z" fill="#e3e7f2" data-original="#e3e7f2" class=""/>
			<path style="" d="M67.238,229.4h42.667c0,32.99-26.744,59.733-59.733,59.733v-42.667     C50.2,237.053,57.824,229.428,67.238,229.4z" fill="#e3e7f2" data-original="#e3e7f2" class=""/>
		</g>
		<g>
			<path style="" d="M459.772,246.467v42.667c-8.863,0.033-17.618-1.951-25.6-5.803     c-20.877-9.833-34.181-30.854-34.133-53.931h42.667C452.119,229.428,459.744,237.053,459.772,246.467z" fill="#a4c2f7" data-original="#a4c2f7" class=""/>
			<path style="" d="M459.772,442.733V485.4c-0.028,9.414-7.653,17.039-17.067,17.067h-42.667     c-0.048-23.076,13.257-44.098,34.133-53.931C442.157,444.693,450.91,442.71,459.772,442.733z" fill="#a4c2f7" data-original="#a4c2f7" class=""/>
		</g>
		<g>
			<path style="" d="M434.172,246.467v36.864c-20.877-9.833-34.181-30.854-34.133-53.931h17.067     C426.519,229.428,434.144,237.053,434.172,246.467z" fill="#e3e7f2" data-original="#e3e7f2" class=""/>
			<path style="" d="M434.172,448.536V485.4c-0.028,9.414-7.653,17.039-17.067,17.067h-17.067     C399.991,479.39,413.295,458.369,434.172,448.536z" fill="#e3e7f2" data-original="#e3e7f2" class=""/>
		</g>
		<path style="" d="M502.353,158.744c-1.536-15.872-18.688-29.355-43.093-35.925    C435.11,68.205,361.382,22.552,268.796,10.605c-4.284-1.6-8.76-2.633-13.312-3.072C390.822,7.533,500.22,79.725,502.353,158.744z" fill="#a4c2f7" data-original="#a4c2f7" class=""/>
		<path style="" d="M459.26,122.819c-10.962-2.95-22.27-4.414-33.621-4.352c-5.736-0.027-11.467,0.344-17.152,1.109    c-31.659,4.011-55.893,18.859-59.221,37.205c-0.085-1.963-0.171-4.608-0.427-7.68c-0.915-7.35-2.691-14.568-5.291-21.504    c-5.932-19.073-15.753-36.71-28.843-51.797c-7.595-7.595-12.544-52.565-45.909-65.195    C361.382,22.552,435.11,68.205,459.26,122.819z" fill="#e3e7f2" data-original="#e3e7f2" class=""/>
		<path style="" d="M238.929,7.96c-24.917,7.595-45.141,45.141-52.224,59.307c-15.019,29.952-25.6,59.733-24.661,76.8    c0.375,5.706,0.06,11.436-0.939,17.067c0-12.032-9.045-22.955-23.552-30.72c4.998-22.005,12.919-43.243,23.552-63.147    c6.4-12.885,23.808-45.141,45.568-56.491C217.169,9.325,228.006,8.387,238.929,7.96z" fill="#a4c2f7" data-original="#a4c2f7" class=""/>
		<path style="" d="M206.673,10.776c-21.76,11.349-39.168,43.605-45.568,56.491    c-10.633,19.904-18.554,41.141-23.552,63.147c-16.527-8.217-34.795-12.316-53.248-11.947c-4.523,0-8.875,0.256-13.141,0.597    c-34.816,3.413-61.611,19.712-63.573,39.68c0.383-11.176,2.782-22.19,7.083-32.512C37.286,70.339,112.38,23.064,206.673,10.776z" fill="#e3e7f2" data-original="#e3e7f2" class=""/>
		<path style="" d="M349.265,156.781v0.256c-0.31,1.343-0.454,2.718-0.427,4.096c0-11.776-10.496-22.443-27.392-30.208    C316.07,90.819,298.748,23.491,242.342,9.667c4.148-1.036,8.371-1.749,12.629-2.133h0.512    C339.622,15.64,348.326,132.547,349.265,156.781z" fill="#a4c2f7" data-original="#a4c2f7" class=""/>
		<path style="" d="M321.446,130.925c-21.069-8.669-43.696-12.909-66.475-12.459c-4.352,0-8.619,0.171-12.8,0.427    c-44.373,2.731-78.848,19.541-80.981,40.192c0.267-9.506,1.036-18.991,2.304-28.416c5.376-40.021,22.699-107.008,78.763-121.003    h0.085C298.748,23.491,316.07,90.819,321.446,130.925z" fill="#e3e7f2" data-original="#e3e7f2" class=""/>
		<g>
			<path style="" d="M254.972,7.533c-4.186,0.38-8.337,1.079-12.416,2.091c7.245-0.759,14.566-1.374,21.973-1.707     c-6.382,2.158-12.25,5.609-17.237,10.138c6.424-3.755,13.348-6.579,20.565-8.388h0.085c2.64-0.65,5.311-1.163,8.004-1.536     c-6.75-0.358-13.559-0.597-20.48-0.597H254.972z" fill="#ffffff" data-original="#ffffff" class=""/>
			<path style="" d="M75.772,485.4V246.467c0.028-9.414,7.653-17.039,17.067-17.067h-25.6     c-9.414,0.028-17.039,7.653-17.067,17.067V485.4c0.028,9.414,7.653,17.039,17.067,17.067h25.6     C83.424,502.439,75.8,494.814,75.772,485.4z" fill="#ffffff" data-original="#ffffff" class=""/>
			<path style="" d="M232.273,10.776h0.085c2.099-1.137,4.298-2.077,6.571-2.807     c-10.923,0.427-21.76,1.365-32.256,2.816c-94.293,12.279-169.387,59.554-192,115.447c-4.301,10.322-6.7,21.336-7.083,32.512     c1.323-13.457,13.952-25.233,32.691-32.538C62.912,70.33,137.997,23.064,232.273,10.776z" fill="#ffffff" data-original="#ffffff" class=""/>
		</g>
	</g>
	<g>
		<polygon style="" points="59.705,281.6 59.705,392.533 59.705,486.4 42.638,486.4 42.638,392.533 42.638,281.6   " fill="#ffffff" data-original="#ffffff" class=""/>
		<g>
			<path style="" d="M51.172,358.4c3.467,0.02,6.601-2.059,7.931-5.261c1.329-3.202,0.59-6.89-1.872-9.331l-1.28-1.024     c-0.476-0.323-0.992-0.581-1.536-0.768c-0.484-0.246-1.001-0.419-1.536-0.512c-0.564-0.095-1.135-0.152-1.707-0.171     c-2.259,0.033-4.422,0.917-6.059,2.475c-0.771,0.816-1.38,1.772-1.792,2.816c-1.287,3.183-0.586,6.825,1.792,9.301     c0.816,0.771,1.772,1.38,2.816,1.792C48.955,358.155,50.057,358.387,51.172,358.4z" fill="#a8a8a8" data-original="#428dff" class=""/>
			<path style="" d="M182.363,377.899c-8.353-1.049-16.31,3.858-19.123,11.793c-3.002,8.168,0.074,17.325,7.398,22.025     l9.591,6.229l-7.031,12.527c-4.221,7.748-2.843,17.35,3.386,23.599c6.229,6.249,15.826,7.657,23.588,3.461l12.049-6.528     l6.468,10.112c3.391,5.127,9.127,8.213,15.275,8.218c2.137-0.006,4.257-0.372,6.272-1.084     c7.834-2.625,12.902-10.216,12.322-18.458l-0.631-34.389l18.321-16.896l38.17,56.158c2.977,5.396,9.209,8.116,15.189,6.63     c6.601-1.512,11.423-7.185,11.853-13.943c0.034-0.532,0.017-1.067-0.051-1.596l-12.211-92.868l28.348-24.277     c4.53-4.536,6.999-10.735,6.827-17.143v-18.645c-0.222-10.853-9.045-19.555-19.9-19.627l-18.389-0.128     c-6.665-0.162-13.097,2.453-17.758,7.219l-24.166,27.87l-93.286-12.151c-0.489-0.067-0.983-0.087-1.476-0.06     c-6.779,0.341-12.509,5.137-14.037,11.75c-1.499,5.706,0.931,11.718,5.973,14.78l57.037,38.4l-16.794,18.082L182.363,377.899z      M225.431,393.387l26.274-28.245c1.701-1.828,2.516-4.309,2.23-6.789c-0.286-2.48-1.643-4.711-3.715-6.105l-56.32-37.862     l85.675,11.153c3.124,0.786,6.424-0.253,8.533-2.688l26.752-30.942c1.361-1.244,3.168-1.884,5.009-1.775l18.56,0.094     c1.551,0.026,2.813,1.257,2.876,2.807v18.603c0.113,1.587-0.347,3.161-1.297,4.437l-31.573,26.965     c-1.813,1.609-2.864,3.908-2.893,6.332c-0.025,0.789,0.067,1.577,0.273,2.338l11.213,85.333l-38.246-56.32     c-1.396-2.056-3.618-3.402-6.087-3.686s-4.939,0.523-6.764,2.209l-28.382,26.206c-1.791,1.651-2.791,3.99-2.748,6.426     l0.717,38.767c0.055,0.63-0.301,1.225-0.882,1.475c-0.581,0.25-1.257,0.099-1.678-0.374l-10.607-16.631     c-2.409-3.776-7.327-5.046-11.264-2.91l-19.055,10.334c-1.104,0.589-2.464,0.385-3.345-0.503     c-0.547-0.516-0.856-1.236-0.853-1.988c-0.013-0.447,0.087-0.89,0.29-1.289l10.889-19.456c2.2-3.916,0.987-8.867-2.773-11.324     l-16.213-10.496c-0.714-0.359-1.047-1.194-0.777-1.946c0.205-0.597,0.512-0.742,1.911-0.632l37.717,1.195     C221.356,396.209,223.755,395.216,225.431,393.387z" fill="#a8a8a8" data-original="#428dff" class=""/>
			<path style="" d="M443.705,221.867H324.238v-25.6c0-14.138-11.462-25.6-25.6-25.6h-85.333     c-14.139,0-25.6,11.462-25.6,25.6v25.6H68.238c-14.138,0-25.6,11.462-25.6,25.6v68.267c0,4.713,3.821,8.533,8.533,8.533     s8.533-3.821,8.533-8.533v-17.655c30.887-3.938,55.207-28.257,59.145-59.145h274.244c3.938,30.887,28.257,55.207,59.145,59.145     v137.711c-30.887,3.938-55.207,28.257-59.145,59.145H118.85c-3.938-30.887-28.257-55.207-59.145-59.145V384     c0-4.713-3.821-8.533-8.533-8.533s-8.533,3.821-8.533,8.533v102.4c0,14.138,11.462,25.6,25.6,25.6h375.467     c14.138,0,25.6-11.461,25.6-25.6V247.467C469.305,233.328,457.844,221.867,443.705,221.867z M204.772,196.267     c0-4.713,3.821-8.533,8.533-8.533h85.333c4.713,0,8.533,3.821,8.533,8.533v25.6h-102.4V196.267z M59.705,280.832v-33.365     c0-4.713,3.821-8.533,8.533-8.533h33.365C97.94,260.373,81.145,277.168,59.705,280.832z M410.34,238.933h33.365     c4.713,0,8.533,3.821,8.533,8.533v33.365C430.798,277.168,414.004,260.373,410.34,238.933z M59.705,486.4v-33.365     c21.44,3.664,38.234,20.459,41.899,41.899H68.238C63.526,494.933,59.705,491.113,59.705,486.4z M443.705,494.933H410.34     c3.664-21.44,20.459-38.234,41.899-41.899V486.4C452.238,491.113,448.418,494.933,443.705,494.933z" fill="#a8a8a8" data-original="#428dff" class=""/>
			<path style="" d="M256.509,0C119.831,0,2.387,73.054,0.057,159.505c-0.129,4.596,3.407,8.467,7.996,8.755     c4.566,0.227,8.52-3.137,9.028-7.68C18.643,144.853,46.419,128,85.305,128c40.235,0,68.267,17.988,68.267,34.133     c0.028,4.289,3.271,7.873,7.535,8.329c0.328,0.09,0.661,0.158,0.998,0.205c4.289-0.028,7.873-3.271,8.329-7.535     c0.09-0.328,0.158-0.661,0.205-0.998c0-16.119,36.489-34.133,85.333-34.133s85.333,18.014,85.333,34.133     c0,4.713,3.82,8.533,8.533,8.533c0.094,0,0.171-0.051,0.265-0.051c0.094,0,0.171,0.051,0.273,0.051     c4.713,0,8.533-3.821,8.533-8.533c0-0.452,0-1.707-0.068-3.516c3.678-15.13,30.464-30.618,67.797-30.618     c38.886,0,66.671,16.853,68.224,32.58c0.297,4.713,4.358,8.293,9.071,7.996s8.293-4.358,7.996-9.071     C509.557,73.054,392.608,0,256.509,0z M85.305,110.933c-20.711-0.462-41.193,4.401-59.486,14.123     C49.841,74.547,120.812,33.28,205.105,20.924c-33.869,28.655-45.491,79.676-49.493,111.991     C135.451,117.623,110.585,109.849,85.305,110.933z M255.972,110.933c-34.876,0-64.435,7.936-82.773,20.48     c5.717-40.73,24.064-108.203,83.004-114.287c59.136,6.11,77.406,73.993,83.063,114.679     C321.047,119.031,291.214,110.933,255.972,110.933z M426.638,110.933c-25.073-1.042-49.741,6.582-69.854,21.589     c-4.011-32.341-15.684-83.115-49.493-111.65c84.087,12.262,154.914,53.623,178.859,104.209     C467.852,115.346,447.36,110.475,426.638,110.933z" fill="#a8a8a8" data-original="#428dff" class=""/>
		</g>
	</g>
</g>
<g xmlns="http://www.w3.org/2000/svg">
</g>
<g xmlns="http://www.w3.org/2000/svg">
</g>
<g xmlns="http://www.w3.org/2000/svg">
</g>
<g xmlns="http://www.w3.org/2000/svg">
</g>
<g xmlns="http://www.w3.org/2000/svg">
</g>
<g xmlns="http://www.w3.org/2000/svg">
</g>
<g xmlns="http://www.w3.org/2000/svg">
</g>
<g xmlns="http://www.w3.org/2000/svg">
</g>
<g xmlns="http://www.w3.org/2000/svg">
</g>
<g xmlns="http://www.w3.org/2000/svg">
</g>
<g xmlns="http://www.w3.org/2000/svg">
</g>
<g xmlns="http://www.w3.org/2000/svg">
</g>
<g xmlns="http://www.w3.org/2000/svg">
</g>
<g xmlns="http://www.w3.org/2000/svg">
</g>
<g xmlns="http://www.w3.org/2000/svg">
</g>
</g></svg>
